<svg width="372" height="172" viewBox="0 0 372 172" xmlns="http://www.w3.org/2000/svg">
  <g fill="none" fill-rule="evenodd">
    <path fill="var(--secondary)" fill-rule="nonzero" d="M120.8,171 L120.8,168.14 L109.6,168.14 L109.6,165.3 L120.8,165.3 L120.8,162.7 L109.6,162.7 L109.6,159.86 L120.8,159.86 L120.8,157 L106,157 L106,171 L120.8,171 Z M141.5,171 L141.5,167.98 L130.7,167.98 L130.7,157 L127.1,157 L127.1,171 L141.5,171 Z M151.4,155.36 L159.18,153.76 L159.18,151.4 L151.4,153 L151.4,155.36 Z M162.7,171 L162.7,168.14 L151.5,168.14 L151.5,165.3 L162.7,165.3 L162.7,162.7 L151.5,162.7 L151.5,159.86 L162.7,159.86 L162.7,157 L147.9,157 L147.9,171 L162.7,171 Z M179.08,171 L179.08,160.02 L185.88,160.02 L185.88,157 L168.68,157 L168.68,160.02 L175.48,160.02 L175.48,171 L179.08,171 Z M195.66,171 L195.66,167.26 L201.46,167.26 L203.72,171 L207.96,171 L205.38,166.84 C207.26,166.1 208.42,164.42 208.42,162.14 C208.42,159.02 206.24,157 203.06,157 L192.06,157 L192.06,171 L195.66,171 Z M202.275912,164.239436 L195.66,164.24 L195.66,160.02 L202.06,160.02 C203.14,160.02 204.82,160.02 204.82,162.14 C204.82,164.104516 203.349781,164.231259 202.275912,164.239436 Z M218.2,171 L218.2,157 L214.6,157 L214.6,171 L218.2,171 Z M233.2,171.2 C238.78,171.2 241.58,169.06 241.94,165 L238.28,165 C237.94,167.28 236.18,168.18 233.2,168.18 C229.56,168.18 228,166.86 228,163.98 C228,161.12 229.54,159.82 233.2,159.82 C236.2,159.82 237.94,160.7 238.28,162.96 L241.94,162.96 C241.58,158.92 238.78,156.8 233.2,156.8 C227.04,156.8 224.4,159.34 224.4,163.98 C224.4,168.64 227.04,171.2 233.2,171.2 Z M249.84,171 L251.34,168.02 L259.72,168.02 L261.22,171 L265.2,171 L257.96,157 L253.1,157 L245.88,171 L249.84,171 Z M258.38,165.34 L252.68,165.34 L255.54,159.66 L258.38,165.34 Z"/>
    <path fill="var(--primary)" fill-rule="nonzero" d="M27.896,137.66 C37.73,137.66 44.66,134.492 49.016,129.74 L49.544,137 L58.322,137 L58.322,112.25 L29.018,112.25 L29.018,119.972 L46.244,119.972 C45.98,123.47 41.36,128.486 29.876,128.486 C14.498,128.486 12.32,119.774 12.32,114.164 C12.32,108.62 14.432,100.106 29.876,100.106 C42.416,100.106 45.584,105.32 46.244,108.818 L58.322,108.818 C57.596,97.334 48.356,90.14 29.876,90.14 C10.868,90.14 0.44,98.588 0.44,113.9 C0.44,129.212 10.868,137.66 27.896,137.66 Z M94.992,137.66 C115.254,137.66 124.032,129.146 124.032,113.834 C124.032,98.588 115.254,90.14 94.992,90.14 C74.664,90.14 65.952,98.522 65.952,113.834 C65.952,129.212 74.664,137.66 94.992,137.66 Z M94.992,127.694 C82.65,127.694 77.832,123.338 77.832,113.834 C77.832,104.396 82.584,100.106 94.992,100.106 C107.4,100.106 112.152,104.462 112.152,113.834 C112.152,123.272 107.334,127.694 94.992,127.694 Z M144.202,137 L144.202,122.546 L177.202,122.546 L177.202,112.514 L144.202,112.514 L144.202,100.766 L181.162,100.766 L181.162,90.8 L132.322,90.8 L132.322,137 L144.202,137 Z M237.896,137 L237.896,127.562 L200.936,127.562 L200.936,118.19 L237.896,118.19 L237.896,109.61 L200.936,109.61 L200.936,100.238 L237.896,100.238 L237.896,90.8 L189.056,90.8 L189.056,137 L237.896,137 Z M304.53,122.81 C304.53,111.128 293.244,110.138 275.028,109.148 C261.564,108.356 258.792,107.696 258.792,104.132 C258.792,100.7 261.564,99.578 273.246,99.578 C285.588,99.578 290.67,100.832 290.67,105.914 L302.55,105.914 C302.55,94.496 291.99,90.14 274.566,90.14 C257.274,90.14 246.912,93.374 246.912,103.538 C246.912,113.9 254.898,117.068 275.028,117.992 C290.01,118.718 292.65,119.378 292.65,123.206 C292.65,126.791185 288.980316,128.187436 276.872026,128.221365 L276.414,128.222 C261.366,128.222 257.406,125.978 257.406,121.094 L245.526,121.094 C245.526,134.29268 256.587409,137.59431 275.18804,137.659023 L275.754,137.66 C292.848,137.66 304.53,135.152 304.53,122.81 Z M320.872,137 L325.822,127.166 L353.476,127.166 L358.426,137 L371.56,137 L347.668,90.8 L331.63,90.8 L307.804,137 L320.872,137 Z M349.054,118.322 L330.244,118.322 L339.682,99.578 L349.054,118.322 Z"/>
    <polygon fill="var(--primary)" points="179.859 12 232 12 186.01 58 186.01 46.28 145 46.28" transform="rotate(-180 188.5 35)"/>
    <polygon fill="var(--secondary)" points="179.859 0 232 0 186.01 46 186.01 34.28 145 34.28"/>
    <path fill="var(--background)" d="M190.989899,12 L190.989899,23.7197452 L208.286,23.719 L186.010101,46 L186.010101,34.2802548 L168.714,34.28 L190.989899,12 Z"/>
  </g>
</svg>
